<?xml version="1.0" encoding="utf-8"?>
<!-- Generator: Adobe Illustrator 27.8.1, SVG Export Plug-In . SVG Version: 6.00 Build 0)  -->
<svg version="1.1" id="Layer_1" xmlns="http://www.w3.org/2000/svg" xmlns:xlink="http://www.w3.org/1999/xlink" x="0px" y="0px"
	 viewBox="0 0 24 24" style="enable-background:new 0 0 24 24;" xml:space="preserve">
<style type="text/css">
	.st0{fill:#212529;}
	.st1{fill:#5CFAA9;}
</style>
<path class="st0" d="M20.5,20.9l-1.7,1.7c-0.9,0.9-2.2,1.5-3.5,1.5H7c-2.8,0-5-2.2-5-5V5c0-2.8,2.2-5,5-5h10c2.8,0,5,2.2,5,5v12.3
	C22,18.7,21.5,19.9,20.5,20.9z M19.1,19.5c0.4-0.4,0.7-0.9,0.8-1.5H18c-1.1,0-2,0.9-2,2v1.9c0.5-0.1,1.1-0.4,1.5-0.8L19.1,19.5
	L19.1,19.5z M17,2H7C5.3,2,4,3.3,4,5v14c0,1.7,1.3,3,3,3h7v-2c0-2.2,1.8-4,4-4h2V5C20,3.3,18.7,2,17,2L17,2z"/>
<path class="st1" d="M12,21H8c-0.6,0-1-0.4-1-1s0.4-1,1-1h4c0.6,0,1,0.4,1,1S12.6,21,12,21z"/>
</svg>
