<?xml version="1.0" encoding="utf-8"?>
<!-- Generator: Adobe Illustrator 27.8.1, SVG Export Plug-In . SVG Version: 6.00 Build 0)  -->
<svg version="1.1" id="Layer_1" xmlns="http://www.w3.org/2000/svg" xmlns:xlink="http://www.w3.org/1999/xlink" x="0px" y="0px"
	 viewBox="0 0 128 128" style="enable-background:new 0 0 128 128;" xml:space="preserve">
<style type="text/css">
	.st0{fill:#00FF94;}
	.st1{fill:#5CFAA9;}
	.st2{fill:#212529;}
</style>
<path class="st0" d="M57.3,4.1H114c5.5,0,10,4.5,10,10v13.1c0,5.5-4.5,10-10,10H57.3c-5.5,0-10-4.5-10-10V14.1
	C47.3,8.5,51.8,4.1,57.3,4.1z M20.5,3.9C11.4,3.9,4,11.4,4,20.5s7.4,16.6,16.6,16.6c9.1,0,16.6-7.4,16.6-16.6l0,0
	C37.1,11.4,29.7,3.9,20.5,3.9L20.5,3.9z"/>
<path class="st1" d="M48.5,78.4H14c-5.5,0-10-4.5-10-10v-13c0-5.5,5.6-10,11.1-10h33.4c5.5,0,10,4.5,10,10v13
	C58.5,74,54.1,78.4,48.5,78.4z"/>
<path class="st2" d="M48.5,89H14C8.5,89,4,93.5,4,99v15c0,5.5,5.6,10,11.1,10h33.4c5.5,0,10-4.5,10-10V99C58.5,93.5,54.1,89,48.5,89
	z M114,45.4H79.5c-5.5,0-10,4.5-10,10v13c0,5.5,5.6,10,11.1,10H114c5.5,0,10-4.5,10-10v-13C124,49.9,119.5,45.4,114,45.4z"/>
<path class="st1" d="M114,124.1H79.5c-5.5,0-10-4.5-10-10V99c0-5.5,5.6-10,11.1-10H114c5.5,0,10,4.5,10,10v15
	C124,119.6,119.5,124.1,114,124.1z"/>
</svg>
