<svg xmlns="http://www.w3.org/2000/svg" viewBox="0 0 24 24"><path fill="#212529" d="M20.5356,3.1211l-1.6572-1.6562c-.9443-.9443-2.2002-1.4648-3.5352-1.4648H7C4.2432,0,2,2.2432,2,5v14c0,2.7568,2.2432,5,5,5h10c2.7568,0,5-2.2432,5-5V6.6572c0-1.3359-.52-2.5918-1.4644-3.5361Zm-1.4141,1.4141c.4078,.4078,.678,.9147,.8005,1.4648h-1.9221c-1.103,0-2-.8975-2-2v-1.9196c.5493,.1249,1.063,.3972,1.4644,.7985l1.6572,1.6562Zm-2.1216,17.4648H7c-1.6543,0-3-1.3457-3-3V5c0-1.6543,1.3457-3,3-3h7v2c0,2.2061,1.7944,4,4,4h2v11c0,1.6543-1.3457,3-3,3Z"/><path fill="#5cfaa9" d="M12,3h-4c-.5522,0-1,.4473-1,1s.4478,1,1,1h4c.5522,0,1-.4473,1-1s-.4478-1-1-1Z"/></svg>